<svg viewBox="0 0 800 800" xmlns="http://www.w3.org/2000/svg" fill-rule="evenodd" clip-rule="evenodd" stroke-linejoin="round" stroke-miterlimit="1.4"><g fill-rule="nonzero"><path d="M206.6 668.6l.4-.3 2-.8c1-.4 2-1.1 3.1-1.9l-1.3 1.2a14.9 14.9 0 0 1-2 1.5l.5-.2 1.7-1 .8-.6-1.6 1.5a17.1 17.1 0 0 0-3.5 7h-3.4c1.4-2 2.5-4.2 3.3-6.4m7-1l1-.6c.3-.2.5-.2.7-.2-.4.9-.7 1.7-1.2 2.5a6.7 6.7 0 0 1-2.8 3.2l.7-1.7c.5-1 1-2.1 1.7-3.2m-6.9 7.4c.2-1 .4-1.3.7-1.8.5-1 1-2 1.7-2.8a15 15 0 0 0-1.5 4l-.2.6h-.7zm460.2 0v-26.9c-1-1.8-3.6-3.6-5.3-5.6-3.4-4-7.4-8.5-11.3-12.6-1.4-1.4-3.5-3.3-3.8-4.3l-.1-3.7c0-2.2.6-2.9 1.2-4.8.5-1.3.6-2.5 1.1-3.5 1.3-2.7 3.3-5.3 4.6-8.4 1.4-3 2.6-6.2 4-9.3 3-6.3 6.8-12.6 8.1-18.5.3-1.3 0-2.9.3-4.6 0-1 .7-4.1 1-4.4.5-.4 1.3.2 2.4.2 3.5 0 5.7-1.5 8.1-2.6 2.2-1 4.6-1.1 5.8-2.3 1-.9 1.5-2.5 2.4-3.5 2.1-2.6 2.5-2.7 2.8-6.3l.2-1.8c.8-1.3.6-2.8-.5-3.6-.5-.4-1.3-.5-2-.3.6-1.3.2-2.9-1-3.8-1-.7-2.2-.8-3.2-.3v-.7c0-1.2.3-1.3-.6-2.3-1-1.1-1.9-1-3.9-.4-1.5-2.8-4.2-.2-5.3.6-.6.5-2 .5-2.4.8-.7.6-1 1.8-1.9 2.5-.7.5-2 1-3 1.4a23.9 23.9 0 0 0-12.3 14.9c-3-.3-2.7 2.4-4 4-.8 1.2-2.8 1.9-3.9 3-1.4 1.6-2.5 4-3.7 6.1-3.9 6.8-6.9 12.8-10.8 19.8-3.5 6.5-7 13.8-10.9 19.5-1.4 2-3.3 4-4.2 5.8-.9 2-1.6 6-1.6 7 0 1.1.8 3 1.2 4.6 1 5 2.4 10.2 3.6 14.5 2.8 10 4.7 19.8 7.7 29.8H513.4a23.7 23.7 0 0 0-18.9-38 23.7 23.7 0 0 0-18.9 38h-39.3c1-2 2.5-3.7 3.8-5.8 1-1.5 2-3.3 2.7-4.8 1.6-3.5 1.5-7.9 3.3-11.4 1.6-2.9 3.6-5.8 5.6-9l2.8-4.2c1.2-1.7 2.7-3.2 2.9-4.5 0-1-.6-1.9-.5-2.7 0-1.1 1.3-3 2-4.7 1.4-3.5 2.6-6.4 4.1-9.4 1.4-2.8 3-4.6 4-7.6 2.8-7.5 4.4-15.2 7.1-22.4.5-1.2.8-2.8 1.4-3.6.7-1.2 2.4-1.8 3.6-3a29 29 0 0 0 2.2-2.4c1.5-2 2-3.3 3.1-5.7.7-1.4 1.6-2.2 1.2-3.1-.5-1-1.4-.1-2.5-.7.3-.6.5-2.1.1-2.7-.3-.8-2.3-.1-2.7-1 0-1.4.4-2.3-.3-2.9-1.2-1-2.8 1.2-3.5.3l1.9-5.5.9-2.7c.1-.8 1-2.8-.5-3.1-1.2-.4-2.5 1.8-3 3.2-.7 1.6-1.2 3.6-1.9 5.1-.5 1.2-1.4 2.2-2 3.3-.7 1.3-1 2.6-2 3.4-1.7-1-3.1-.1-3.6 1.1-.6 1.7.3 2.2-.3 3.3-.4.8-.7 1.8-.7 2.7 0 1.6 1 2.7.9 4 0 .9-.8 2.2-1.2 3.3-.4 1.2-.6 2.5-1 3.5-.7 2.1-2.2 4.6-3.5 6.9a80.4 80.4 0 0 1-4.2 6.5c-3.1 4.4-7 8.7-7.6 13.6-.2 1.7 0 3.6-.6 4.8-.6 1-2 1.7-3.4 3-1.2 1-2.3 2.6-3.3 3.2-.7.4-1.5.2-2 .7-.8.7-1 2.2-1.4 3-1 1.8-2.6 3.3-4.1 4.7-1.5 1.3-3.5 2.4-4.8 4-.6.7-1 1.8-1.5 2.6l-3.8 6.1c-.8-.4-2-.3-3-.7.2-.4-.1-.9 0-1.3.5-1.3 1.7-2.6 2.5-4.1.3-.2.9.4 1-.2-.2-.3-.9-.5-.5-1 .4.1 0 .6.5.4.3-.5 1.2-.5.9-1-.3-.4-.3.3-.6 0 .5-1.3 1.4-1.6 2.4-1.5-.9.1-.7.6-1.1 1.3.8.3.4-1.3 1.4-.7 0-.2.1-.4.3-.3 1.2-1.5.7-3 1.3-4 .3.3-.2.7.4.9.2-2 1.3-3.9 1.7-6l.7.6c-.1-.3-.3-.5-.3-.8 0 0 .1-.2.3 0v-.2l.1.1.3.6v-.4c0 .2.2.3.3.4.1 0 .1 0 0 0l-.4-.7.6.3-.7-1v-.1a4.9 4.9 0 0 0 .6.2l.5.3c.2 0 .2 0 0 0-.4-.3-.8-.7-1.1-1.2v-.4l.6.4a3 3 0 0 1-.6-1v-.3l.1-.2.7.4a2 2 0 0 1-.3-.4 7 7 0 0 0 1.3.3l-1.6-1.1v-.5h.4c.5 0 .9 0 1.3-.2a3.1 3.1 0 0 1-1.9-.5c0-.2 0-.5.2-.7l.7.4-.5-.7v-.1a.7.7 0 0 1-.1-.2l-.1-.1v-.4l.2.1.8.7c.1 0 .1 0 0 0l-.6-1.2a9.2 9.2 0 0 0 1.3.4 6 6 0 0 1-.4-.4h.6l-.6-.2c0-.2-.4-.4-.4-.7l.3-.1h1c-.7-.2-1.3-.4-2-.8v-.6c-.1 0-.9.3-.4-.1 0-.1 0-.2.2-.2h.8v.1h-1c-.2 0-.3-.4-.6-.4v-.1c.1-.2.3.5.4-.5l.3-.3s0-.1 0 0h-.8l-.1-.2v-.1c.3-.2.5-.4.6-.7l-.8.4-.7-1.4.2-.6-.3.3v-.4h-.3l.8-1-1 .7-.2-.2.2-.8-.5.5-.3-.4-.3-1.1.5-.8c0-.1 0-.1 0 0-.4.3-.9.6-1.3.7 0-.4-.2-.6.2-1h-.2l.4-.3c-.5 0-1 .2-1.4.5a2 2 0 0 0-.2-1.7c-.5.5.1 1.2-.6 1.1-.3 0 0-.3 0-.5a7 7 0 0 0 .6-.8l-1.2.6c.1-.5-.4-.5-.6-.8l.2-.4h-.2l-.6.3.7-1.2c0-.2.2-.3.3-.5l-1.4.8h-.3l.2-.5-.7.3s0-.2-.2-.2v-.4l-.8.7a11.5 11.5 0 0 1 0-.6l-.4.5s-.1 0 0-.4h-.2l.6-.5a3 3 0 0 0-1.3.3 7.4 7.4 0 0 0 .4-1l-1.3 1h-.3c.2-.1.4-.4.5-.7a2 2 0 0 1-1 .7h-1l.3-.5-1 .4v-.3h-.1a10.4 10.4 0 0 0 .3-.6l-1 .8c.1-.5.2-1 0-1.5 0 .3 0 .7-.2 1h-.1l-.2.3c-.3.4-.6.6-1 .7l-.1-.1v-.1c0-.7-.3-1.2-.5-1.8v1.8l-.1.7-1.6.5-.5.6a2.2 2.2 0 0 1-.1-1.5h-.1c-.2.3-.4.7-.4 1v.8c-.4-.3-.6-.8-.8-1.3v.4h-.1c0-.1 0-.1 0 0v.9c-.2.3-.3.8-.7.3a8.2 8.2 0 0 1 0-1l-.7 2v-1c0-.1 0-.1 0 0l-.3.6-.1-.5a2.9 2.9 0 0 0-.2 1.6c-.4-.4-1-.7-1.4-.9-.1 0-.1 0 0 0l.8 1.1-.1.1c-.4-.4-1-.7-1.5-.9l1 1.2c-.6 1.5-2.3.8-3.2 1.5.6-.1 1.3-.3 1.7.4h-.1l-.1.1c-.2 0-.2.2-.3.3a2 2 0 0 1-.5.4c-.4.2-.8.2-1.2.1-.1 0-.1 0 0 0 .3.2.7.3 1 .3l.1.1-.9.2-1.3-.1c.4.3.8.4 1.3.6h.4c-.4.6-1 1-1.7 1.4-.1 0 0 0 0 0l1.3-.3v.3c-.2 0-.4.2-.6.4a7.6 7.6 0 0 1-1.4.5h1.6l.3-.1h.2l-1 2.6c-.5 1.6-.3 3.3-.7 5l-.2.7v.2c-.3 1-.9 2-.8 3 0 .3.3.5.3.9 0 .8-.2 1.7-.5 2.5l.2.1v.3l.1 1.3-.3 1.2c-.2 1.4.4 2.8-.1 3.6l.2.4a5 5 0 0 1-1.3 1.6c-.5.3-1.5 0-2 .3-1.7.7-2.9 2.9-4.8 3.8-1.5.7-1.3-.3-3.2 0-.9-6.9-11.3-12.3-14.3-19-.8-1.7-.6-3.6-3-3.6-1.6-2.8-4.3-4.4-5-7-.6-2.5 0-5.4-.9-8-.7-2.1-2.7-4.5-4.3-6.8a84.2 84.2 0 0 0-5-6.2A63.4 63.4 0 0 1 348 577c-.2-.7-.6-1.4-1-2.1-.4-1-1.6-3.5-1.6-4.3-.2-1 .4-1.8.3-2.6-.2-1.1-1.7-2.3-2.4-3.5-.2-.3-.2-1.3-.5-1.8-.4-.6-1.1-1.2-1.6-2l-4.2-6.6c-2-3.3-4.4-9.3-6.7-8.1-1.5 1.1 1 4 2 6s1.8 3.7 2.3 5.6c-1.7-1.7-3.3-1-3.4 1.6-.6-.1-1.4.1-2 .7-.8.4-1.3 1.5-1.1 2.6-4.4 0-1.3 4-.3 5.8 1.9 3.3 3.2 5.3 5.5 7.5 1.2 1 3 1.7 3.9 2.8l1 2.2 3 6.7c3.4 7.7 5.3 16.2 9.3 22.8.9 1.4 2 2.6 2.6 4 2 4.7 3 10.1 4.8 14.1-3 2.3.4 5 2 8l3.1 6a53 53 0 0 1 5 13v2.7c.5 3.7 2.2 6.5 4 9.3 1.1 1.6 4 8.2 4.4 10.1l30.4-2.5h-132l6.4-6.6a75 75 0 0 0 6.1-7.4c2-2.5 3.3-5.6 5.5-8 2.2-2.4 4.9-4.8 6-7.2 1.5-2.9.2-6.3-.8-8.7l-1.4-3.4c-2.7-7-5.5-14-8.6-20.6-3.2-6.6-6.4-12.6-10.4-18.7a18.3 18.3 0 0 1-3-6.8c0-2.2 1-4.7 1.4-7.3l.5-3.8c.3-1.9.6-3.3.7-4.8 0-.4.4-.7.4-1.1.5-3.8-.6-4.2-2.3-6.6-.8-1.2-2.1-2.5-2.4-3.6-.4-1.1 0-2.5-.3-3.6-.1-.8-.5-1.6-.6-2.5-.5-2-.5-2.7-1.2-3.8-.8-1.3-1.5-3-2.7-3.2-.2.8-.7.7-.9 1.3-.6 2.1 1.6 3.7 1.1 5.2-2-1-3.8-2.3-6-3.1.2 1.1-.5 1.6-.3 2.5.5 2.6 4.5 2.3 4.5 5.2-2.3.4-4-1.2-5.9-.5.4 1.3.5 2.2 1.6 3 1 .6 2.7.4 3.9.9 1 .4 2.3 1.6 2.2 2.2-.6.6-1.7-.5-2 1-.4 1.4 1.4 1 1.6 2.6 0 1.3-1.6 3.7-3 3.7-3.6-.1-3.4-8.7-7.7-8.4-.7 0-1.9.4-2.2 1.4-.8 2.3 2.2 4 3.1 5.8.5 1 .7 2.4 1.2 3.7.5 1.3 1.2 2.5 1.3 3.4.2 1-.2 2.6 0 3.6.6 2.5 3.9 4.4 4.8 6.3.5 1 .5 2.3.9 3.6.3 1.2.9 2.2 1.4 3.4.8 2.2 1.4 4.7 2.2 7 3.2 9.4 5.5 19.5 8.4 28.8 1.5 4.8 3.6 9 5.6 12.9-2.7 1.5-5 3.4-7.2 5.9l-1.7 1.8-.8-.7c-.8-.7-1.5-1.6-2.2-2.5l-.5-2.2c-.7-2.7-1-5.4-1.7-8-.7-2.4-1.7-4.7-2.5-7-.8-2-2-3.6-3-5.5-1.4-3.1-6-6.2-9.5-5.5-2 .4-3.6 1.8-5.7 1.5-1.2-.2-2.2 0-3.3.6-1 .5-1.2.2-2.3 0-2.8-.5-5.8.7-8.2 2.5l.6-.7a27.7 27.7 0 0 0-1.3 1.2l-2.2 2.2-.1.2-5.7 6c-2.1 1.8-4.4 4-6.6 5.3l-2 1-.8.3.8-.2c.7-.1 1.5-.4 2.3-.7a31 31 0 0 0 4.2-2.5 27.5 27.5 0 0 1-5 4l-2.2 1-.7.2.8-.1c.8-.2 1.6-.4 2.4-.8l.7-.2c-1 .6-2 1.2-3 1.6-.9.3-1.8.6-2.7.6h-1l1 .2c1 0 2 0 2.9-.2 1.2-.3 2.3-.8 3.5-1.3l-.5.7c-.8.6-1.7 1-2.6 1.5l-.9.3 1-.2 1.2-.5-.9.8a8.8 8.8 0 0 0-2.8 4l-.4 1.7-1 1.5-.9 1.2-.3.4c.2 0 .2-.2.4-.3l1.1-1.2 1.7-1.9v.2l-1.7 2.8c-.3.4-.6.9-1 1.2l-.3.4.4-.3 1.1-1.2.3-.3-1.2 1.8a5.2 5.2 0 0 1-1.6 1.5l.5-.3c.5-.2 1-.6 1.4-1 .8-.7 1.5-1.7 2.2-2.6l-.8 1.5c-.3.4-.5 1-.9 1.4l-.3.5.4-.4 1-1.4c.4-.5.8-1 1-1.5l.2.6v.2l-.4.8-.1.1c0 .3-.2.5-.3.8l-.3.5a25.7 25.7 0 0 0 .7-1v.1l-.5 1c-.9 1.4-1.8 2.9-2.8 3.8l-1 .7h-.3.3l1.2-.5c.7-.5 1.4-1.1 2-1.9-.7 1-1.4 2-2.3 2.7l-1.1.7-.4.2.4-.1 1.3-.5.4-.2a6 6 0 0 1-1.6 1l-1.6.5h-.6.6c.6.1 1.2 0 1.7-.1 1-.3 2-.9 2.8-1.7l-1 1.2-1.5 1-.5.2.5-.1c.6-.3 1.1-.5 1.6-.9l1.4-1.2v.1a24.6 24.6 0 0 1-5.4 5.3l-1.4 1-.5.2.5-.2 1.6-.7 2.4-1.5.2-.1a33 33 0 0 1-4.5 3.6l-.5.2c.2 0 .4 0 .6-.2l1.6-.7.4-.3a16.1 16.1 0 0 1-4 2.5 23.4 23.4 0 0 0-22.2-31.4c-13 0-23.5 10.9-23.5 23.9 0 5.2 1.7 10.3 4.6 14.3h-57.9v-.7c0-13-10.5-23.7-23.5-23.7A23.7 23.7 0 0 0 60.5 675H19v84h671v-84h-23z" fill="#351a2d"/><path d="M105.5 609c2.5 2.7 4.7 4.8 6.4 6.8l3.6 4.2a10 10 0 0 1-2.5-1.3c-1-.8-2.2-.8-3.6-.7-1.2.1-2.3.8-1.4 2.3.6 1 2.5 2 3.4 2.3l4.5 2.1c1.5.7 3 1.4 4.5 2.3.9.4 2.1 1.3 2.7 2.2.7 1 .3 1.5 0 2.6-.6 1.7-.5 3.5-.7 5.3-.1 1-.5 2.4-.8 3.6-.9 3.2-3.2 6.5-4.6 9.5-2.8 6-6.7 11.6-9.5 18-.7 1.5-1 3.2-1.7 4.8-.7 1.5-1.7 3-2.3 4.5a67.2 67.2 0 0 0-3.5 10c-.8 2.8-1 5.8-1.5 8.7 6.2 3.4 12.5 6.6 18.4 10.7l.4.3.2-.9c.9-3.1 1.9-6.5 3-8.8 1.2-2.7 2.9-4.8 4-7.4a180.9 180.9 0 0 0 5.3-28c1.2-8.1 2.2-16.4 4.4-24.4.4-1.3 1.2-3 1.8-4.4.7-1.4 1-2.7 1.8-4a8.6 8.6 0 0 0 1.6-4.7c-.2-3.2-2.3-6-4-8.4-1.3-1.8-2.8-3.3-4.1-5-.8-.9-1.2-2-1.9-2.8-.8-1-1.5-1-2-1.9-.7-.7-1-2.2-1.6-3.4-1.1-2.2-1.8-4.7-3-6.8-.6-.8-2.2-2.7-3.2-2-1 .7 1.2 5.4 1.5 6.2l1 3c.3.9 1.9 4.8 0 2.6-.5-.5-1.4-2.7-1.8-3.3a88 88 0 0 1-5.2-9c-.7-1.2-2.7-4-4-2.4-1 1 .6 3.1 1.2 4.4l2 4.2c.7 1.4 1.2 3 1.9 4.3.7 1.4 2.1 2.6 2 4.2-2.5-1.8-4.5-4.8-6.3-7.3l-2.1-2.5c-.5-.7-3.3-7.3-5.6-5.6-1 .7 0 3 .4 3.8.6 1.3 1.4 2.6 2 3.4 2.6 4.2 4 6.7 7 10.4-2.7-1.4-4.6-3.7-7.4-6.3-1.2-1.2-4.2-3.9-5.3-2.4-1 1.3 3.3 5.8 4.6 7m548.3-7.6c-2.6 2.6-4.8 4.7-6.5 6.7l-3.6 4.3a10 10 0 0 0 2.5-1.3c1.1-.9 2.2-.9 3.6-.7 1.2 0 2.3.7 1.4 2.3-.5 1-2.5 1.9-3.4 2.3l-4.5 2-4.5 2.3c-.9.5-2.1 1.4-2.7 2.2-.7 1-.2 1.5.1 2.6.5 1.7.4 3.5.6 5.3.1 1.1.5 2.5.8 3.6 1 3.2 3.3 6.5 4.6 9.5 2.8 6 6.7 11.6 9.5 18 .7 1.5 1.1 3.2 1.8 4.9.6 1.5 1.6 3 2.3 4.4a67 67 0 0 1 3.5 10.1c.7 2.8 1 5.7 1.5 8.6-6.2 3.5-12.6 6.6-18.5 10.7l-.4.3-.2-.8c-.9-3.2-1.9-6.6-2.9-8.8-1.2-2.7-3-4.9-4-7.4-1.1-2.8-1.6-5.7-2.4-9-1.2-5.9-2.1-12-3-19-1.2-8.2-2.1-16.5-4.4-24.4a24 24 0 0 0-1.8-4.4c-.7-1.4-1-2.8-1.7-4-1-1.6-1.7-2.9-1.6-4.8.1-3.1 2.2-6 4-8.4 1.2-1.8 2.7-3.3 4-4.9.8-1 1.3-2.1 2-2.9.7-1 1.4-1 2-1.8.6-.8 1-2.2 1.5-3.5 1.2-2.1 1.8-4.6 3.1-6.7.5-.9 2.2-2.8 3.2-2.1 1 .7-1.3 5.4-1.6 6.2l-1 3c-.3 1-1.9 4.9 0 2.7.5-.6 1.4-2.8 1.8-3.4 2-3.1 3.5-5.6 5.2-8.9.7-1.3 2.7-4 4.1-2.5 1 1.1-.7 3.1-1.3 4.5l-2 4.1-1.9 4.4c-.7 1.4-2 2.5-2 4.1 2.6-1.7 4.5-4.8 6.4-7.2l2-2.6c.5-.7 3.3-7.3 5.6-5.6 1 .7 0 3-.3 3.8-.6 1.3-1.5 2.6-2 3.4-2.7 4.2-4 6.8-7.1 10.4 2.7-1.4 4.6-3.6 7.4-6.3 1.2-1.2 4.2-3.8 5.3-2.4 1 1.3-3.3 5.9-4.5 7.1"/><path d="M61.3 659.3c-.8-3.5-1.4-7-1.7-10.3l-2.6-9c-1-4-3-7.8-3.5-11.4-.5-4.3.5-8.2.6-12.2 0-7-.9-14.3-.9-21.5 0-2.5.7-5 .9-7.6a66 66 0 0 1 3.2-18.2c.1-1-.2-2.1 0-3.8 1.3-.4 3.8-.4 5.5-1.1 2.5-1.1 6-5.2 7.8-8.2a22 22 0 0 0 3-7.8c-.2-2.3-4.6-4.8-4.6-6.6 0-1.1 2.7-3.6 3.8-4.8 3.2-3.5 5.7-5.7 8.4-9.3 1.2-1.5 3-5 1.4-6-1.4-.8-4.2 2.2-5.2 3-4.1 3.6-7.3 7.7-11.1 10.9-.7.6-1.7 1.7-2.7 1.4-.3-2.6 1-4.3 1.6-6.3.6-1.9.9-4 1.6-6.5.5-1.6 1.5-3.3 2.2-5.7.3-1.1 1.4-5.6-1.4-5.7h-.2c-3.6 2.3-4.3 8.2-6.3 12.2l-1.3 2.6c-1 2.8-1 6-2.8 8-2-2.1-5.7-1-6.2 1-.9-1.2-1-2.1-3-1.8-1.8.3-2 3-2.7 4.6-2.2 5-4.8 9.1-5.4 15-.3 2 .2 4.4-.3 7.6-.1.7-.9 1.5-1.1 2.4-.6 2.2-.5 5-1.4 7-.3 1-1.4 1.8-1.9 2.8-.7 1.5-1.4 3.6-2.1 5.7l-2 6c-2.4 8.3-4.5 17-6 26-.7 5.2-1.6 10.2-1.3 14.7.7 8.1 2.5 16.4 3 25 .2 3.4.2 6.9.3 10.3.1 3.5.6 7 .5 10.3 0 7.6-2.9 14.8-3 22.3 0 7 .3 14.7 1.4 20.4a89 89 0 0 0 2 7.5A92.6 92.6 0 0 1 71 686c-4.6-8.5-7.7-18-9.7-26.7m53.2-4.3l.3.6h-.3v-.5" fill="#351a2d"/><path d="M67.4 547.6c.2 1-.2 2-1.1 2.2 0-1.1 0-2.1 1-2.2m20.4 67.1c-.3.2-.8.3-1.3.3l1.3-.3m-19.9 56.1l.8-1.1-.6 1.5-.2-.4" fill="#351a2d"/><path d="M61.3 659.3c-.8-3.5-1.4-7-1.7-10.3l-2.6-9c-1-4-3-7.8-3.5-11.4-.5-4.3.5-8.2.6-12.2 0-7-.9-14.3-.9-21.5 0-2.5.7-5 .9-7.6a66 66 0 0 1 3.2-18.2c.1-1-.2-2.1 0-3.8 1.3-.4 3.8-.4 5.5-1.1 2.5-1.1 6-5.2 7.8-8.2a22 22 0 0 0 3-7.8c-.2-2.3-4.6-4.8-4.6-6.6 0-1.1 2.7-3.6 3.8-4.8 3.2-3.5 5.7-5.7 8.4-9.3 1.2-1.5 3-5 1.4-6-1.4-.8-4.2 2.2-5.2 3-4.1 3.6-7.3 7.7-11.1 10.9-.7.6-1.7 1.7-2.7 1.4-.3-2.6 1-4.3 1.6-6.3.6-1.9.9-4 1.6-6.5.5-1.6 1.5-3.3 2.2-5.7.3-1.1 1.4-5.6-1.4-5.7h-.2c-3.6 2.3-4.3 8.2-6.3 12.2l-1.3 2.6c-1 2.8-1 6-2.8 8-2-2.1-5.7-1-6.2 1-.9-1.2-1-2.1-3-1.8-1.8.3-2 3-2.7 4.6-2.2 5-4.8 9.1-5.4 15-.3 2 .2 4.4-.3 7.6-.1.7-.9 1.5-1.1 2.4-.6 2.2-.5 5-1.4 7-.3 1-1.4 1.8-1.9 2.8-.7 1.5-1.4 3.6-2.1 5.7l-2 6c-2.4 8.3-4.5 17-6 26-.7 5.2-1.6 10.2-1.3 14.7.7 8.1 2.5 16.4 3 25 .2 3.4.2 6.9.3 10.3.1 3.5.6 7 .5 10.3 0 7.6-2.9 14.8-3 22.3 0 7 .3 14.7 1.4 20.4a89 89 0 0 0 2 7.5A92.6 92.6 0 0 1 71 686c-4.6-8.5-7.7-18-9.7-26.7m53.2-4.3l.3.6h-.3v-.5" fill="#180f15"/><path d="M67.4 547.6c.2 1-.2 2-1.1 2.2 0-1.1 0-2.1 1-2.2m20.4 67.1c-.3.2-.8.3-1.3.3l1.3-.3m-19.9 56.1l.8-1.1-.6 1.5-.2-.4" fill="#180f15"/><path d="M490.7 659.3c.9-3.5 1.4-7 1.8-10.3l2.5-9c1-4 3.1-7.8 3.5-11.4.5-4.3-.5-8.2-.5-12.2-.1-7 .8-14.3.8-21.5 0-2.5-.7-5-.8-7.6a70 70 0 0 0-3.3-18.2c-.1-1 .2-2.1 0-3.8-1.2-.4-3.8-.4-5.4-1.1a24.8 24.8 0 0 1-10.9-16c.2-2.3 4.6-4.8 4.6-6.6 0-1.1-2.7-3.6-3.8-4.8-3.2-3.5-5.7-5.7-8.4-9.3-1.2-1.5-3-5-1.4-6 1.4-.8 4.2 2.2 5.2 3 4.1 3.6 7.3 7.7 11.1 10.9.7.6 1.7 1.7 2.8 1.4.2-2.6-1-4.3-1.7-6.3-.6-1.9-.9-4-1.6-6.5-.5-1.6-1.5-3.3-2.2-5.7-.3-1.1-1.3-5.6 1.4-5.7h.3c3.5 2.3 4.3 8.2 6.2 12.2l1.3 2.6c1 2.8 1.1 6 2.8 8 2-2.1 5.7-1 6.2 1 1-1.2 1-2.1 3-1.8 1.8.3 2 3 2.7 4.6 2.2 5 4.8 9.1 5.5 15 .2 2-.3 4.4.2 7.6.2.7.9 1.5 1.1 2.4.6 2.2.6 5 1.4 7 .4 1 1.4 1.8 1.9 2.8.7 1.5 1.4 3.6 2.2 5.7l1.9 6c2.4 8.3 4.5 17 6 26 .8 5.2 1.6 10.2 1.3 14.7-.6 8.1-2.5 16.4-3 25-.2 3.4-.2 6.9-.3 10.3 0 3.5-.5 7-.5 10.3 0 7.6 2.9 14.8 3 22.3 0 7-.3 14.7-1.4 20.4-.5 2.8-1.3 5.2-2 7.5A92.7 92.7 0 0 0 481 686c4.6-8.5 7.7-18 9.7-26.7m-53.2-3.8h-.2l.2-.4v.4" fill="#351a2d"/><path d="M485.7 549.8c-1-.1-1.3-1.2-1-2.2 1 0 1 1 1 2.2M465.6 615c-.5 0-1 0-1.3-.3.5 0 1 .2 1.3.3m18.4 56.2l-.6-1.5.8 1.1-.2.4" fill="#351a2d"/><path d="M490.7 659.3c.9-3.5 1.4-7 1.8-10.3l2.5-9c1-4 3.1-7.8 3.5-11.4.5-4.3-.5-8.2-.5-12.2-.1-7 .8-14.3.8-21.5 0-2.5-.7-5-.8-7.6a70 70 0 0 0-3.3-18.2c-.1-1 .2-2.1 0-3.8-1.2-.4-3.8-.4-5.4-1.1a24.8 24.8 0 0 1-10.9-16c.2-2.3 4.6-4.8 4.6-6.6 0-1.1-2.7-3.6-3.8-4.8-3.2-3.5-5.7-5.7-8.4-9.3-1.2-1.5-3-5-1.4-6 1.4-.8 4.2 2.2 5.2 3 4.1 3.6 7.3 7.7 11.1 10.9.7.6 1.7 1.7 2.8 1.4.2-2.6-1-4.3-1.7-6.3-.6-1.9-.9-4-1.6-6.5-.5-1.6-1.5-3.3-2.2-5.7-.3-1.1-1.3-5.6 1.4-5.7h.3c3.5 2.3 4.3 8.2 6.2 12.2l1.3 2.6c1 2.8 1.1 6 2.8 8 2-2.1 5.7-1 6.2 1 1-1.2 1-2.1 3-1.8 1.8.3 2 3 2.7 4.6 2.2 5 4.8 9.1 5.5 15 .2 2-.3 4.4.2 7.6.2.7.9 1.5 1.1 2.4.6 2.2.6 5 1.4 7 .4 1 1.4 1.8 1.9 2.8.7 1.5 1.4 3.6 2.2 5.7l1.9 6c2.4 8.3 4.5 17 6 26 .8 5.2 1.6 10.2 1.3 14.7-.6 8.1-2.5 16.4-3 25-.2 3.4-.2 6.9-.3 10.3 0 3.5-.5 7-.5 10.3 0 7.6 2.9 14.8 3 22.3 0 7-.3 14.7-1.4 20.4-.5 2.8-1.3 5.2-2 7.5A92.7 92.7 0 0 0 481 686c4.6-8.5 7.7-18 9.7-26.7m-53.2-3.8h-.2l.2-.4v.4" fill="#180f15"/><path d="M485.7 549.8c-1-.1-1.3-1.2-1-2.2 1 0 1 1 1 2.2M465.6 615c-.5 0-1 0-1.3-.3.5 0 1 .2 1.3.3m18.4 56.2l-.6-1.5.8 1.1-.2.4" fill="#180f15"/><path fill="#180f15" d="M6 670h669v130H6z"/><path d="M563 564.4c1.7 4.8 13.6 20.2 13.6 20.2s11.8 87.1 13 104c1.2-.6 2.7-1 4.4-1.3 4.5-.6 8.2.8 10.7 3.3a13.8 13.8 0 0 1 8.8-.7c-1.7-13.4-14.6-108.2-14.8-111-.3-4 2.6-19.4 1.9-24.2-.7-4.9.6-12.7 1.3-18 .8-5.4 2.6-11.3-1.4-11.1-2.7.1-4 11.9-4.3 13.5-.4 1.7-.4 6.2-2.5 6-1.9-.3-.8-15.1-.8-17.7 0-2.5 1-9.7-1.7-10.8-3.4-1.4-3 4.4-3.3 6.4-.4 2 0 9.6-.2 12.1-.1 2.5 1.3 9.5-.6 9.4-3.2-.3-3.1-13.5-2.8-23.2.4-9.6-5.6-5.7-5.7-3.2-.1 1.9-.4 9.8-.3 12 .1 2.2-.2 8.2 0 10 0 1.8.3 5-1.8 4-2-1.1-2.2-13.3-2.1-15.2 0-2 1.7-8.3-2-9.2-4.4-1.1-3.5 8.7-3.8 11.2a101 101 0 0 0 1 21.3c1.4 8-1.7 10-2.4 5.3-.7-4.6-3.6-8.9-8.5-10.7-3.1-1.2-4.3 1.3-1.5 4.4 2.8 3 4 8.4 5.8 13.2" fill="#000d20"/><path d="M206.6 668.6l.4-.3 2-.8c1-.4 2-1.1 3.1-1.9l-1.3 1.2a14.9 14.9 0 0 1-2 1.5l.5-.2 1.7-1 .8-.6-1.6 1.5a17.1 17.1 0 0 0-3.5 7h-3.4c1.4-2 2.5-4.2 3.3-6.4m7-1l1-.6c.3-.2.5-.2.7-.2-.4.9-.7 1.7-1.2 2.5a6.7 6.7 0 0 1-2.8 3.2l.7-1.7c.5-1 1-2.1 1.7-3.2m-6.9 7.4c.2-1 .4-1.3.7-1.8.5-1 1-2 1.7-2.8a15 15 0 0 0-1.5 4l-.2.6h-.7zm460.2 0v-26.9c-1-1.8-3.6-3.6-5.3-5.6-3.4-4-7.4-8.5-11.3-12.6-1.4-1.4-3.5-3.3-3.8-4.3l-.1-3.7c0-2.2.6-2.9 1.2-4.8.5-1.3.6-2.5 1.1-3.5 1.3-2.7 3.3-5.3 4.6-8.4 1.4-3 2.6-6.2 4-9.3 3-6.3 6.8-12.6 8.1-18.5.3-1.3 0-2.9.3-4.6 0-1 .7-4.1 1-4.4.5-.4 1.3.2 2.4.2 3.5 0 5.7-1.5 8.1-2.6 2.2-1 4.6-1.1 5.8-2.3 1-.9 1.5-2.5 2.4-3.5 2.1-2.6 2.5-2.7 2.8-6.3l.2-1.8c.8-1.3.6-2.8-.5-3.6-.5-.4-1.3-.5-2-.3.6-1.3.2-2.9-1-3.8-1-.7-2.2-.8-3.2-.3v-.7c0-1.2.3-1.3-.6-2.3-1-1.1-1.9-1-3.9-.4-1.5-2.8-4.2-.2-5.3.6-.6.5-2 .5-2.4.8-.7.6-1 1.8-1.9 2.5-.7.5-2 1-3 1.4a23.9 23.9 0 0 0-12.3 14.9c-3-.3-2.7 2.4-4 4-.8 1.2-2.8 1.9-3.9 3-1.4 1.6-2.5 4-3.7 6.1-3.9 6.8-6.9 12.8-10.8 19.8-3.5 6.5-7 13.8-10.9 19.5-1.4 2-3.3 4-4.2 5.8-.9 2-1.6 6-1.6 7 0 1.1.8 3 1.2 4.6 1 5 2.4 10.2 3.6 14.5 2.8 10 4.7 19.8 7.7 29.8H513.4a23.7 23.7 0 0 0-18.9-38 23.7 23.7 0 0 0-18.9 38h-39.3c1-2 2.5-3.7 3.8-5.8 1-1.5 2-3.3 2.7-4.8 1.6-3.5 1.5-7.9 3.3-11.4 1.6-2.9 3.6-5.8 5.6-9l2.8-4.2c1.2-1.7 2.7-3.2 2.9-4.5 0-1-.6-1.9-.5-2.7 0-1.1 1.3-3 2-4.7 1.4-3.5 2.6-6.4 4.1-9.4 1.4-2.8 3-4.6 4-7.6 2.8-7.5 4.4-15.2 7.1-22.4.5-1.2.8-2.8 1.4-3.6.7-1.2 2.4-1.8 3.6-3a29 29 0 0 0 2.2-2.4c1.5-2 2-3.3 3.1-5.7.7-1.4 1.6-2.2 1.2-3.1-.5-1-1.4-.1-2.5-.7.3-.6.5-2.1.1-2.7-.3-.8-2.3-.1-2.7-1 0-1.4.4-2.3-.3-2.9-1.2-1-2.8 1.2-3.5.3l1.9-5.5.9-2.7c.1-.8 1-2.8-.5-3.1-1.2-.4-2.5 1.8-3 3.2-.7 1.6-1.2 3.6-1.9 5.1-.5 1.2-1.4 2.2-2 3.3-.7 1.3-1 2.6-2 3.4-1.7-1-3.1-.1-3.6 1.1-.6 1.7.3 2.2-.3 3.3-.4.8-.7 1.8-.7 2.7 0 1.6 1 2.7.9 4 0 .9-.8 2.2-1.2 3.3-.4 1.2-.6 2.5-1 3.5-.7 2.1-2.2 4.6-3.5 6.9a80.4 80.4 0 0 1-4.2 6.5c-3.1 4.4-7 8.7-7.6 13.6-.2 1.7 0 3.6-.6 4.8-.6 1-2 1.7-3.4 3-1.2 1-2.3 2.6-3.3 3.2-.7.4-1.5.2-2 .7-.8.7-1 2.2-1.4 3-1 1.8-2.6 3.3-4.1 4.7-1.5 1.3-3.5 2.4-4.8 4-.6.7-1 1.8-1.5 2.6l-3.8 6.1c-.8-.4-2-.3-3-.7.2-.4-.1-.9 0-1.3.5-1.3 1.7-2.6 2.5-4.1.3-.2.9.4 1-.2-.2-.3-.9-.5-.5-1 .4.1 0 .6.5.4.3-.5 1.2-.5.9-1-.3-.4-.3.3-.6 0 .5-1.3 1.4-1.6 2.4-1.5-.9.1-.7.6-1.1 1.3.8.3.4-1.3 1.4-.7 0-.2.1-.4.3-.3 1.2-1.5.7-3 1.3-4 .3.3-.2.7.4.9.2-2 1.3-3.9 1.7-6l.7.6c-.1-.3-.3-.5-.3-.8 0 0 .1-.2.3 0v-.2l.1.1.3.6v-.4c0 .2.2.3.3.4.1 0 .1 0 0 0l-.4-.7.6.3-.7-1v-.1a4.9 4.9 0 0 0 .6.2l.5.3c.2 0 .2 0 0 0-.4-.3-.8-.7-1.1-1.2v-.4l.6.4a3 3 0 0 1-.6-1v-.3l.1-.2.7.4a2 2 0 0 1-.3-.4 7 7 0 0 0 1.3.3l-1.6-1.1v-.5h.4c.5 0 .9 0 1.3-.2a3.1 3.1 0 0 1-1.9-.5c0-.2 0-.5.2-.7l.7.4-.5-.7v-.1a.7.7 0 0 1-.1-.2l-.1-.1v-.4l.2.1.8.7c.1 0 .1 0 0 0l-.6-1.2a9.2 9.2 0 0 0 1.3.4 6 6 0 0 1-.4-.4h.6l-.6-.2c0-.2-.4-.4-.4-.7l.3-.1h1c-.7-.2-1.3-.4-2-.8v-.6c-.1 0-.9.3-.4-.1 0-.1 0-.2.2-.2h.8v.1h-1c-.2 0-.3-.4-.6-.4v-.1c.1-.2.3.5.4-.5l.3-.3s0-.1 0 0h-.8l-.1-.2v-.1c.3-.2.5-.4.6-.7l-.8.4-.7-1.4.2-.6-.3.3v-.4h-.3l.8-1-1 .7-.2-.2.2-.8-.5.5-.3-.4-.3-1.1.5-.8c0-.1 0-.1 0 0-.4.3-.9.6-1.3.7 0-.4-.2-.6.2-1h-.2l.4-.3c-.5 0-1 .2-1.4.5a2 2 0 0 0-.2-1.7c-.5.5.1 1.2-.6 1.1-.3 0 0-.3 0-.5a7 7 0 0 0 .6-.8l-1.2.6c.1-.5-.4-.5-.6-.8l.2-.4h-.2l-.6.3.7-1.2c0-.2.2-.3.3-.5l-1.4.8h-.3l.2-.5-.7.3s0-.2-.2-.2v-.4l-.8.7a11.5 11.5 0 0 1 0-.6l-.4.5s-.1 0 0-.4h-.2l.6-.5a3 3 0 0 0-1.3.3 7.4 7.4 0 0 0 .4-1l-1.3 1h-.3c.2-.1.4-.4.5-.7a2 2 0 0 1-1 .7h-1l.3-.5-1 .4v-.3h-.1a10.4 10.4 0 0 0 .3-.6l-1 .8c.1-.5.2-1 0-1.5 0 .3 0 .7-.2 1h-.1l-.2.3c-.3.4-.6.6-1 .7l-.1-.1v-.1c0-.7-.3-1.2-.5-1.8v1.8l-.1.7-1.6.5-.5.6a2.2 2.2 0 0 1-.1-1.5h-.1c-.2.3-.4.7-.4 1v.8c-.4-.3-.6-.8-.8-1.3v.4h-.1c0-.1 0-.1 0 0v.9c-.2.3-.3.8-.7.3a8.2 8.2 0 0 1 0-1l-.7 2v-1c0-.1 0-.1 0 0l-.3.6-.1-.5a2.9 2.9 0 0 0-.2 1.6c-.4-.4-1-.7-1.4-.9-.1 0-.1 0 0 0l.8 1.1-.1.1c-.4-.4-1-.7-1.5-.9l1 1.2c-.6 1.5-2.3.8-3.2 1.5.6-.1 1.3-.3 1.7.4h-.1l-.1.1c-.2 0-.2.2-.3.3a2 2 0 0 1-.5.4c-.4.2-.8.2-1.2.1-.1 0-.1 0 0 0 .3.2.7.3 1 .3l.1.1-.9.2-1.3-.1c.4.3.8.4 1.3.6h.4c-.4.6-1 1-1.7 1.4-.1 0 0 0 0 0l1.3-.3v.3c-.2 0-.4.2-.6.4a7.6 7.6 0 0 1-1.4.5h1.6l.3-.1h.2l-1 2.6c-.5 1.6-.3 3.3-.7 5l-.2.7v.2c-.3 1-.9 2-.8 3 0 .3.3.5.3.9 0 .8-.2 1.7-.5 2.5l.2.1v.3l.1 1.3-.3 1.2c-.2 1.4.4 2.8-.1 3.6l.2.4a5 5 0 0 1-1.3 1.6c-.5.3-1.5 0-2 .3-1.7.7-2.9 2.9-4.8 3.8-1.5.7-1.3-.3-3.2 0-.9-6.9-11.3-12.3-14.3-19-.8-1.7-.6-3.6-3-3.6-1.6-2.8-4.3-4.4-5-7-.6-2.5 0-5.4-.9-8-.7-2.1-2.7-4.5-4.3-6.8a84.2 84.2 0 0 0-5-6.2A63.4 63.4 0 0 1 348 577c-.2-.7-.6-1.4-1-2.1-.4-1-1.6-3.5-1.6-4.3-.2-1 .4-1.8.3-2.6-.2-1.1-1.7-2.3-2.4-3.5-.2-.3-.2-1.3-.5-1.8-.4-.6-1.1-1.2-1.6-2l-4.2-6.6c-2-3.3-4.4-9.3-6.7-8.1-1.5 1.1 1 4 2 6s1.8 3.7 2.3 5.6c-1.7-1.7-3.3-1-3.4 1.6-.6-.1-1.4.1-2 .7-.8.4-1.3 1.5-1.1 2.6-4.4 0-1.3 4-.3 5.8 1.9 3.3 3.2 5.3 5.5 7.5 1.2 1 3 1.7 3.9 2.8l1 2.2 3 6.7c3.4 7.7 5.3 16.2 9.3 22.8.9 1.4 2 2.6 2.6 4 2 4.7 3 10.1 4.8 14.1-3 2.3.4 5 2 8l3.1 6a53 53 0 0 1 5 13v2.7c.5 3.7 2.2 6.5 4 9.3 1.1 1.6 4 8.2 4.4 10.1l30.4-2.5h-132l6.4-6.6a75 75 0 0 0 6.1-7.4c2-2.5 3.3-5.6 5.5-8 2.2-2.4 4.9-4.8 6-7.2 1.5-2.9.2-6.3-.8-8.7l-1.4-3.4c-2.7-7-5.5-14-8.6-20.6-3.2-6.6-6.4-12.6-10.4-18.7a18.3 18.3 0 0 1-3-6.8c0-2.2 1-4.7 1.4-7.3l.5-3.8c.3-1.9.6-3.3.7-4.8 0-.4.4-.7.4-1.1.5-3.8-.6-4.2-2.3-6.6-.8-1.2-2.1-2.5-2.4-3.6-.4-1.1 0-2.5-.3-3.6-.1-.8-.5-1.6-.6-2.5-.5-2-.5-2.7-1.2-3.8-.8-1.3-1.5-3-2.7-3.2-.2.8-.7.7-.9 1.3-.6 2.1 1.6 3.7 1.1 5.2-2-1-3.8-2.3-6-3.1.2 1.1-.5 1.6-.3 2.5.5 2.6 4.5 2.3 4.5 5.2-2.3.4-4-1.2-5.9-.5.4 1.3.5 2.2 1.6 3 1 .6 2.7.4 3.9.9 1 .4 2.3 1.6 2.2 2.2-.6.6-1.7-.5-2 1-.4 1.4 1.4 1 1.6 2.6 0 1.3-1.6 3.7-3 3.7-3.6-.1-3.4-8.7-7.7-8.4-.7 0-1.9.4-2.2 1.4-.8 2.3 2.2 4 3.1 5.8.5 1 .7 2.4 1.2 3.7.5 1.3 1.2 2.5 1.3 3.4.2 1-.2 2.6 0 3.6.6 2.5 3.9 4.4 4.8 6.3.5 1 .5 2.3.9 3.6.3 1.2.9 2.2 1.4 3.4.8 2.2 1.4 4.7 2.2 7 3.2 9.4 5.5 19.5 8.4 28.8 1.5 4.8 3.6 9 5.6 12.9-2.7 1.5-5 3.4-7.2 5.9l-1.7 1.8-.8-.7c-.8-.7-1.5-1.6-2.2-2.5l-.5-2.2c-.7-2.7-1-5.4-1.7-8-.7-2.4-1.7-4.7-2.5-7-.8-2-2-3.6-3-5.5-1.4-3.1-6-6.2-9.5-5.5-2 .4-3.6 1.8-5.7 1.5-1.2-.2-2.2 0-3.3.6-1 .5-1.2.2-2.3 0-2.8-.5-5.8.7-8.2 2.5l.6-.7a27.7 27.7 0 0 0-1.3 1.2l-2.2 2.2-.1.2-5.7 6c-2.1 1.8-4.4 4-6.6 5.3l-2 1-.8.3.8-.2c.7-.1 1.5-.4 2.3-.7a31 31 0 0 0 4.2-2.5 27.5 27.5 0 0 1-5 4l-2.2 1-.7.2.8-.1c.8-.2 1.6-.4 2.4-.8l.7-.2c-1 .6-2 1.2-3 1.6-.9.3-1.8.6-2.7.6h-1l1 .2c1 0 2 0 2.9-.2 1.2-.3 2.3-.8 3.5-1.3l-.5.7c-.8.6-1.7 1-2.6 1.5l-.9.3 1-.2 1.2-.5-.9.8a8.8 8.8 0 0 0-2.8 4l-.4 1.7-1 1.5-.9 1.2-.3.4c.2 0 .2-.2.4-.3l1.1-1.2 1.7-1.9v.2l-1.7 2.8c-.3.4-.6.9-1 1.2l-.3.4.4-.3 1.1-1.2.3-.3-1.2 1.8a5.2 5.2 0 0 1-1.6 1.5l.5-.3c.5-.2 1-.6 1.4-1 .8-.7 1.5-1.7 2.2-2.6l-.8 1.5c-.3.4-.5 1-.9 1.4l-.3.5.4-.4 1-1.4c.4-.5.8-1 1-1.5l.2.6v.2l-.4.8-.1.1c0 .3-.2.5-.3.8l-.3.5a25.7 25.7 0 0 0 .7-1v.1l-.5 1c-.9 1.4-1.8 2.9-2.8 3.8l-1 .7h-.3.3l1.2-.5c.7-.5 1.4-1.1 2-1.9-.7 1-1.4 2-2.3 2.7l-1.1.7-.4.2.4-.1 1.3-.5.4-.2a6 6 0 0 1-1.6 1l-1.6.5h-.6.6c.6.1 1.2 0 1.7-.1 1-.3 2-.9 2.8-1.7l-1 1.2-1.5 1-.5.2.5-.1c.6-.3 1.1-.5 1.6-.9l1.4-1.2v.1a24.6 24.6 0 0 1-5.4 5.3l-1.4 1-.5.2.5-.2 1.6-.7 2.4-1.5.2-.1a33 33 0 0 1-4.5 3.6l-.5.2c.2 0 .4 0 .6-.2l1.6-.7.4-.3a16.1 16.1 0 0 1-4 2.5 23.4 23.4 0 0 0-22.2-31.4c-13 0-23.5 10.9-23.5 23.9 0 5.2 1.7 10.3 4.6 14.3h-57.9v-.7c0-13-10.5-23.7-23.5-23.7A23.7 23.7 0 0 0 60.5 675H19v84h671v-84h-23z" fill="#351a2d"/><path d="M105.5 609c2.5 2.7 4.7 4.8 6.4 6.8l3.6 4.2a10 10 0 0 1-2.5-1.3c-1-.8-2.2-.8-3.6-.7-1.2.1-2.3.8-1.4 2.3.6 1 2.5 2 3.4 2.3l4.5 2.1c1.5.7 3 1.4 4.5 2.3.9.4 2.1 1.3 2.7 2.2.7 1 .3 1.5 0 2.6-.6 1.7-.5 3.5-.7 5.3-.1 1-.5 2.4-.8 3.6-.9 3.2-3.2 6.5-4.6 9.5-2.8 6-6.7 11.6-9.5 18-.7 1.5-1 3.2-1.7 4.8-.7 1.5-1.7 3-2.3 4.5a67.2 67.2 0 0 0-3.5 10c-.8 2.8-1 5.8-1.5 8.7 6.2 3.4 12.5 6.6 18.4 10.7l.4.3.2-.9c.9-3.1 1.9-6.5 3-8.8 1.2-2.7 2.9-4.8 4-7.4a180.9 180.9 0 0 0 5.3-28c1.2-8.1 2.2-16.4 4.4-24.4.4-1.3 1.2-3 1.8-4.4.7-1.4 1-2.7 1.8-4a8.6 8.6 0 0 0 1.6-4.7c-.2-3.2-2.3-6-4-8.4-1.3-1.8-2.8-3.3-4.1-5-.8-.9-1.2-2-1.9-2.8-.8-1-1.5-1-2-1.9-.7-.7-1-2.2-1.6-3.4-1.1-2.2-1.8-4.7-3-6.8-.6-.8-2.2-2.7-3.2-2-1 .7 1.2 5.4 1.5 6.2l1 3c.3.9 1.9 4.8 0 2.6-.5-.5-1.4-2.7-1.8-3.3a88 88 0 0 1-5.2-9c-.7-1.2-2.7-4-4-2.4-1 1 .6 3.1 1.2 4.4l2 4.2c.7 1.4 1.2 3 1.9 4.3.7 1.4 2.1 2.6 2 4.2-2.5-1.8-4.5-4.8-6.3-7.3l-2.1-2.5c-.5-.7-3.3-7.3-5.6-5.6-1 .7 0 3 .4 3.8.6 1.3 1.4 2.6 2 3.4 2.6 4.2 4 6.7 7 10.4-2.7-1.4-4.6-3.7-7.4-6.3-1.2-1.2-4.2-3.9-5.3-2.4-1 1.3 3.3 5.8 4.6 7m548.3-7.6c-2.6 2.6-4.8 4.7-6.5 6.7l-3.6 4.3a10 10 0 0 0 2.5-1.3c1.1-.9 2.2-.9 3.6-.7 1.2 0 2.3.7 1.4 2.3-.5 1-2.5 1.9-3.4 2.3l-4.5 2-4.5 2.3c-.9.5-2.1 1.4-2.7 2.2-.7 1-.2 1.5.1 2.6.5 1.7.4 3.5.6 5.3.1 1.1.5 2.5.8 3.6 1 3.2 3.3 6.5 4.6 9.5 2.8 6 6.7 11.6 9.5 18 .7 1.5 1.1 3.2 1.8 4.9.6 1.5 1.6 3 2.3 4.4a67 67 0 0 1 3.5 10.1c.7 2.8 1 5.7 1.5 8.6-6.2 3.5-12.6 6.6-18.5 10.7l-.4.3-.2-.8c-.9-3.2-1.9-6.6-2.9-8.8-1.2-2.7-3-4.9-4-7.4-1.1-2.8-1.6-5.7-2.4-9-1.2-5.9-2.1-12-3-19-1.2-8.2-2.1-16.5-4.4-24.4a24 24 0 0 0-1.8-4.4c-.7-1.4-1-2.8-1.7-4-1-1.6-1.7-2.9-1.6-4.8.1-3.1 2.2-6 4-8.4 1.2-1.8 2.7-3.3 4-4.9.8-1 1.3-2.1 2-2.9.7-1 1.4-1 2-1.8.6-.8 1-2.2 1.5-3.5 1.2-2.1 1.8-4.6 3.1-6.7.5-.9 2.2-2.8 3.2-2.1 1 .7-1.3 5.4-1.6 6.2l-1 3c-.3 1-1.9 4.9 0 2.7.5-.6 1.4-2.8 1.8-3.4 2-3.1 3.5-5.6 5.2-8.9.7-1.3 2.7-4 4.1-2.5 1 1.1-.7 3.1-1.3 4.5l-2 4.1-1.9 4.4c-.7 1.4-2 2.5-2 4.1 2.6-1.7 4.5-4.8 6.4-7.2l2-2.6c.5-.7 3.3-7.3 5.6-5.6 1 .7 0 3-.3 3.8-.6 1.3-1.5 2.6-2 3.4-2.7 4.2-4 6.8-7.1 10.4 2.7-1.4 4.6-3.6 7.4-6.3 1.2-1.2 4.2-3.8 5.3-2.4 1 1.3-3.3 5.9-4.5 7.1"/><path d="M61.3 659.3c-.8-3.5-1.4-7-1.7-10.3l-2.6-9c-1-4-3-7.8-3.5-11.4-.5-4.3.5-8.2.6-12.2 0-7-.9-14.3-.9-21.5 0-2.5.7-5 .9-7.6a66 66 0 0 1 3.2-18.2c.1-1-.2-2.1 0-3.8 1.3-.4 3.8-.4 5.5-1.1 2.5-1.1 6-5.2 7.8-8.2a22 22 0 0 0 3-7.8c-.2-2.3-4.6-4.8-4.6-6.6 0-1.1 2.7-3.6 3.8-4.8 3.2-3.5 5.7-5.7 8.4-9.3 1.2-1.5 3-5 1.4-6-1.4-.8-4.2 2.2-5.2 3-4.1 3.6-7.3 7.7-11.1 10.9-.7.6-1.7 1.7-2.7 1.4-.3-2.6 1-4.3 1.6-6.3.6-1.9.9-4 1.6-6.5.5-1.6 1.5-3.3 2.2-5.7.3-1.1 1.4-5.6-1.4-5.7h-.2c-3.6 2.3-4.3 8.2-6.3 12.2l-1.3 2.6c-1 2.8-1 6-2.8 8-2-2.1-5.7-1-6.2 1-.9-1.2-1-2.1-3-1.8-1.8.3-2 3-2.7 4.6-2.2 5-4.8 9.1-5.4 15-.3 2 .2 4.4-.3 7.6-.1.7-.9 1.5-1.1 2.4-.6 2.2-.5 5-1.4 7-.3 1-1.4 1.8-1.9 2.8-.7 1.5-1.4 3.6-2.1 5.7l-2 6c-2.4 8.3-4.5 17-6 26-.7 5.2-1.6 10.2-1.3 14.7.7 8.1 2.5 16.4 3 25 .2 3.4.2 6.9.3 10.3.1 3.5.6 7 .5 10.3 0 7.6-2.9 14.8-3 22.3 0 7 .3 14.7 1.4 20.4a89 89 0 0 0 2 7.5A92.6 92.6 0 0 1 71 686c-4.6-8.5-7.7-18-9.7-26.7m53.2-4.3l.3.6h-.3v-.5" fill="#351a2d"/><path d="M67.4 547.6c.2 1-.2 2-1.1 2.2 0-1.1 0-2.1 1-2.2m20.4 67.1c-.3.2-.8.3-1.3.3l1.3-.3m-19.9 56.1l.8-1.1-.6 1.5-.2-.4" fill="#351a2d"/><path d="M61.3 659.3c-.8-3.5-1.4-7-1.7-10.3l-2.6-9c-1-4-3-7.8-3.5-11.4-.5-4.3.5-8.2.6-12.2 0-7-.9-14.3-.9-21.5 0-2.5.7-5 .9-7.6a66 66 0 0 1 3.2-18.2c.1-1-.2-2.1 0-3.8 1.3-.4 3.8-.4 5.5-1.1 2.5-1.1 6-5.2 7.8-8.2a22 22 0 0 0 3-7.8c-.2-2.3-4.6-4.8-4.6-6.6 0-1.1 2.7-3.6 3.8-4.8 3.2-3.5 5.7-5.7 8.4-9.3 1.2-1.5 3-5 1.4-6-1.4-.8-4.2 2.2-5.2 3-4.1 3.6-7.3 7.7-11.1 10.9-.7.6-1.7 1.7-2.7 1.4-.3-2.6 1-4.3 1.6-6.3.6-1.9.9-4 1.6-6.5.5-1.6 1.5-3.3 2.2-5.7.3-1.1 1.4-5.6-1.4-5.7h-.2c-3.6 2.3-4.3 8.2-6.3 12.2l-1.3 2.6c-1 2.8-1 6-2.8 8-2-2.1-5.7-1-6.2 1-.9-1.2-1-2.1-3-1.8-1.8.3-2 3-2.7 4.6-2.2 5-4.8 9.1-5.4 15-.3 2 .2 4.4-.3 7.6-.1.7-.9 1.5-1.1 2.4-.6 2.2-.5 5-1.4 7-.3 1-1.4 1.8-1.9 2.8-.7 1.5-1.4 3.6-2.1 5.7l-2 6c-2.4 8.3-4.5 17-6 26-.7 5.2-1.6 10.2-1.3 14.7.7 8.1 2.5 16.4 3 25 .2 3.4.2 6.9.3 10.3.1 3.5.6 7 .5 10.3 0 7.6-2.9 14.8-3 22.3 0 7 .3 14.7 1.4 20.4a89 89 0 0 0 2 7.5A92.6 92.6 0 0 1 71 686c-4.6-8.5-7.7-18-9.7-26.7m53.2-4.3l.3.6h-.3v-.5" fill="#180f15"/><path d="M67.4 547.6c.2 1-.2 2-1.1 2.2 0-1.1 0-2.1 1-2.2m20.4 67.1c-.3.2-.8.3-1.3.3l1.3-.3m-19.9 56.1l.8-1.1-.6 1.5-.2-.4" fill="#180f15"/><path d="M490.7 659.3c.9-3.5 1.4-7 1.8-10.3l2.5-9c1-4 3.1-7.8 3.5-11.4.5-4.3-.5-8.2-.5-12.2-.1-7 .8-14.3.8-21.5 0-2.5-.7-5-.8-7.6a70 70 0 0 0-3.3-18.2c-.1-1 .2-2.1 0-3.8-1.2-.4-3.8-.4-5.4-1.1a24.8 24.8 0 0 1-10.9-16c.2-2.3 4.6-4.8 4.6-6.6 0-1.1-2.7-3.6-3.8-4.8-3.2-3.5-5.7-5.7-8.4-9.3-1.2-1.5-3-5-1.4-6 1.4-.8 4.2 2.2 5.2 3 4.1 3.6 7.3 7.7 11.1 10.9.7.6 1.7 1.7 2.8 1.4.2-2.6-1-4.3-1.7-6.3-.6-1.9-.9-4-1.6-6.5-.5-1.6-1.5-3.3-2.2-5.7-.3-1.1-1.3-5.6 1.4-5.7h.3c3.5 2.3 4.3 8.2 6.2 12.2l1.3 2.6c1 2.8 1.1 6 2.8 8 2-2.1 5.7-1 6.2 1 1-1.2 1-2.1 3-1.8 1.8.3 2 3 2.7 4.6 2.2 5 4.8 9.1 5.5 15 .2 2-.3 4.4.2 7.6.2.7.9 1.5 1.1 2.4.6 2.2.6 5 1.4 7 .4 1 1.4 1.8 1.9 2.8.7 1.5 1.4 3.6 2.2 5.7l1.9 6c2.4 8.3 4.5 17 6 26 .8 5.2 1.6 10.2 1.3 14.7-.6 8.1-2.5 16.4-3 25-.2 3.4-.2 6.9-.3 10.3 0 3.5-.5 7-.5 10.3 0 7.6 2.9 14.8 3 22.3 0 7-.3 14.7-1.4 20.4-.5 2.8-1.3 5.2-2 7.5A92.7 92.7 0 0 0 481 686c4.6-8.5 7.7-18 9.7-26.7m-53.2-3.8h-.2l.2-.4v.4" fill="#351a2d"/><path d="M485.7 549.8c-1-.1-1.3-1.2-1-2.2 1 0 1 1 1 2.2M465.6 615c-.5 0-1 0-1.3-.3.5 0 1 .2 1.3.3m18.4 56.2l-.6-1.5.8 1.1-.2.4" fill="#351a2d"/><path d="M490.7 659.3c.9-3.5 1.4-7 1.8-10.3l2.5-9c1-4 3.1-7.8 3.5-11.4.5-4.3-.5-8.2-.5-12.2-.1-7 .8-14.3.8-21.5 0-2.5-.7-5-.8-7.6a70 70 0 0 0-3.3-18.2c-.1-1 .2-2.1 0-3.8-1.2-.4-3.8-.4-5.4-1.1a24.8 24.8 0 0 1-10.9-16c.2-2.3 4.6-4.8 4.6-6.6 0-1.1-2.7-3.6-3.8-4.8-3.2-3.5-5.7-5.7-8.4-9.3-1.2-1.5-3-5-1.4-6 1.4-.8 4.2 2.2 5.2 3 4.1 3.6 7.3 7.7 11.1 10.9.7.6 1.7 1.7 2.8 1.4.2-2.6-1-4.3-1.7-6.3-.6-1.9-.9-4-1.6-6.5-.5-1.6-1.5-3.3-2.2-5.7-.3-1.1-1.3-5.6 1.4-5.7h.3c3.5 2.3 4.3 8.2 6.2 12.2l1.3 2.6c1 2.8 1.1 6 2.8 8 2-2.1 5.7-1 6.2 1 1-1.2 1-2.1 3-1.8 1.8.3 2 3 2.7 4.6 2.2 5 4.8 9.1 5.5 15 .2 2-.3 4.4.2 7.6.2.7.9 1.5 1.1 2.4.6 2.2.6 5 1.4 7 .4 1 1.4 1.8 1.9 2.8.7 1.5 1.4 3.6 2.2 5.7l1.9 6c2.4 8.3 4.5 17 6 26 .8 5.2 1.6 10.2 1.3 14.7-.6 8.1-2.5 16.4-3 25-.2 3.4-.2 6.9-.3 10.3 0 3.5-.5 7-.5 10.3 0 7.6 2.9 14.8 3 22.3 0 7-.3 14.7-1.4 20.4-.5 2.8-1.3 5.2-2 7.5A92.7 92.7 0 0 0 481 686c4.6-8.5 7.7-18 9.7-26.7m-53.2-3.8h-.2l.2-.4v.4" fill="#180f15"/><path d="M485.7 549.8c-1-.1-1.3-1.2-1-2.2 1 0 1 1 1 2.2M465.6 615c-.5 0-1 0-1.3-.3.5 0 1 .2 1.3.3m18.4 56.2l-.6-1.5.8 1.1-.2.4" fill="#180f15"/><path fill="#180f15" d="M6 670h669v130H6z"/><path d="M377 612.1a123 123 0 0 0 6.3 18.6s-9.5 70.4-12.3 83.8c1.1-.2 2.4-.2 3.7 0 3.7.4 6.2 2.3 7.7 4.8a11.1 11.1 0 0 1 7 1.4l12.3-89.6c.6-3.2 6.3-14.6 6.7-18.5.5-4 3.2-9.8 5-13.8 1.7-4 4.3-8.1 1.2-8.9-2.1-.4-5.7 8.4-6.3 9.6-.6 1.3-1.6 4.8-3.1 4.1-1.5-.6 2.6-11.9 3.1-13.9s2.8-7.3 1-8.7c-2.4-1.8-3.2 2.7-4 4.2-.6 1.5-2 7.5-2.7 9.4-.6 2-1 7.7-2.5 7.2-2.4-1 .5-11.2 2.9-18.6 2.3-7.5-3.2-5.7-3.8-3.8-.5 1.5-2.5 7.5-2.8 9.2-.4 1.8-2 6.4-2.2 7.9-.4 1.4-.8 3.9-2.2 2.6-1.4-1.2 1.1-10.8 1.6-12.2.5-1.6 3.1-6.1.5-7.6-3.3-1.8-4.7 6-5.5 7.9-.9 2.1-3 10.3-3.7 16.8-.7 6.5-3.5 7.4-3 3.6.4-3.7-1-7.7-4.4-10.2-2.2-1.5-3.6.1-2.1 3.1s1.4 7.5 1.7 11.6"/><path d="M290.1 675c2.3-.5 4.8-.7 7.5-1.2l6.5-1.6 2-.3.3 3.1H290zm-6-5.7c1.3-2 3.6-2 5.6-2.6 1.8-.5 3.5-1.5 5.6-2.1 1.4-.5 7-1.2 9.5-2.9l.8 5.6-2 .2-12.9 2c-2 .4-4.5 1.3-6.5-.2m-96.3-9.5l-.2-.5-.4-1.2.6 1 .1.6m-.3.3l-.5-1.6v-.2l.4 1.1.2.6-.1.1m-.1.1l-.5-1.5.5 1.5m-.3.3a100.4 100.4 0 0 0-.3-1.6l.4 1.5m-9.6 7l-.1-.9.9 2.6v.2l-.8-2m-9.8-57.6l1.4.3c-.5 0-1 0-1.4-.3m564.8-119.5c.9-2.8 8-3.6 10.7-2.3a16 16 0 0 0 9.6.4c3.1-1 6.8-5.3 13.4 1.6 1.4 1.4 1.3 6.3 1.3 7.5 0 1.3 3.4 6.6-5.5 5-8.9-1.5-12.1 6.8-12.1 6.8-1-3.3-9.8-6.5-14.4-5.8-4.5.8-3.8-10.4-3-13.2m-33.6 71.3c1.2-4.3 6.8-45.7 13.1-47.5 6.3-1.7 21.1-9.7 29.8-2.4 8.7 7.2 9.3 5.6 11.6 3.6 2.3-2 5-7.8 15.6-1.7 10.5 6 15.6 2.4 21.1 17.6 3.4 9.2 8.6 26.9 12.6 40.8V519c-4-6.2-6.1-10.9-7.1-12.5a179.5 179.5 0 0 0-31-30.4c-8.6-5.6-12 2.3-13.2 3.8-.8 1-2.6 1.3-3.9 1.5l-1.3-1.2c-10-9.5-10.5-3.5-32 11.5-21.6 15-42.4 86.4-46.7 95.6-4.3 9 .8 31.9-1 42.7-1.5 8.4 5.2 34 8.2 44.9l-11.6 1.9s9.4-12 1.6-34.3c-7.2-20.4-27-21.5-44.8-13.9-5.7 8-10.1 17.4-16.7 25.3a12 12 0 0 1-10.1 4c-1.3 2.4 3-15.2.6-13.8-5.1 4.4-4.1-5.5-18.2 3.8-5.8 3.9-6.7 8-8.1 12.6a50 50 0 0 0-5.6-2.3c-16.6-5.2-23.3 8-25.8 16.7h-7.6c1.5-6.7 2.1-14.1 3.3-21.4l4-24.3a75.7 75.7 0 0 1 6.4-22.5c3.5-6.8 8-13.4 9.7-20.3.6-2.3 0-5 .7-7.3.9-2.7 3.2-5.5 4.3-8.3 1.1-2.7 4.6-9.4.4-9.9-5.1 2-5 10.4-8.9 12.3 0-2.4-1.3-4.5-3.4-5a4 4 0 0 0-2.3.1l-1 .1c-.5-2-1.8-3.5-3.5-3.9-2-.5-4.2.6-5.6 2.6-.2-3.4 7.8-21.1 1.4-22-3.5-.3-5.6 11.5-6.2 13.3-2.1 5.8-2.5 6.2-5 11.6-2 3.7-3.6 8.4-5 12.4-1.8 4.7.8 10.2 1.4 14.9a35 35 0 0 1-1 13c-.8 3.6-1.2 7.6-2 10.7-4.6 19.3-18 37.4-22.5 53.9h-18.2c-1.2-9.5-3.7-18.9-4.8-22-1.2-4-9-36-9-38.4-.1-2.5-.4-16.8 2.3-20.2 2.7-3.3 14.8-12.9 16.6-15.7 1.7-2.7-.6-3.5-2.7-4.3-2.2-.7-11.5 6.6-13.4 6-1.8-.6-2.3-8.4-2.1-10.3a154 154 0 0 1 2.1-13.3c.9-4 1.8-10.3-.6-10.8-2.5-.5-3.3 2-3.5 4.7-.2 1.9-1.9 18.3-4.8 17.5-2.2-.6-.4-19.7-2.4-22.4-1.8-2.5-3.8 0-4 1.4-.3 1.4-.2 10.4-.5 12.4-.2 2.1 0 9.5-2 9.5-1.2 0-2.5-13-2.7-17.1-.2-4.2-1.1-6.9-3.6-5.6-2 1.2-.9 11.9-.9 11.9.2 1.6 1.3 12.3 0 13-1.1.7-5.2-15.5-7.7-15-2.4.5-1.2 4.7.8 10.3 1.2 3 2.8 10.9 3.8 13.8 1 3 2.8 8.3 3.3 14.1.5 5.9 1.9 13.1 1.9 13.1-.2 3.5-2 29.3-3.9 40.4-.6 3.3.2 14.1.3 23.1-2.7-3.6-4.4-7.9-11-12.5-11.6-8.3-31.5-15.5-47.7-2.9a40 40 0 0 0-16.8-9.8c-10.6-3.3-18.1-1-23.5 3.5l-1.1-2.6v-1c.2-1 0-2.1 0-3.2 0-2.2.8-4.3.7-6.5-.5-.3-1.4-.3-2-.2h-1.7c-2.2-2.8-3-11.3-3.3-12.6-1.5-4.5-4-7.1-4-10.6.1-4.6 3-10.7 2.8-15.7 0-4-1.7-8.4-2.7-12.6-3-12.2-7.6-26-7.9-38.6 0-4-.7-12.9.7-16.5.8-2 2.9-3.4 3.6-5.3 1-2.9 1.7-7.3 1.6-10.4-.1-3.6-2.4-5.9-2.6-9.1-.1-1.8-.2-3.5-.1-5.3v-11.6a66.5 66.5 0 0 0-.4-7l-.1-1c-.1-.5-.5-.9-.7-1.3-.4-.6-.8-.6-1.5-.5-.4 0-1.2.3-1.4.7l-.6 1-.4 1-.2 1a81.7 81.7 0 0 0-.7 7.1c-.2 3.2-.1 6.5-.8 9.7-.7-1.7-2-2.8-3.7-2.8a3 3 0 0 0-2.3 1.1 3 3 0 0 0-1.3 1.4c-.6-.5-1.4-.8-2.2-.8-1 0-2 .7-2.7 1.6-1 1-1.2 3.9-2.5 4.4-.1-6 1.1-16.4-2.6-16.4-2.7-.8-2 8.7-2.1 12.6-.4 8.5-.5 17 1 24.4.7 3.6 2.6 7 3.4 10.9.7 3.8.3 8.4.3 12.6l.2 13c-.1 9-1.7 18.2-1.4 26.8.1 4.2 1.2 8 1.9 12.3 1.3 8.4 1 17.1.9 25.7 0 4 .7 10 .2 13l-.1.3c-1.4.2-2.7.3-4 1 .3 1.5.7 2.8 1.2 4.4.3 1 1 1.7 1 2.8.1 1.2.5 2 .9 3 .4 1.7.1 3.5.8 5l.6 1.2.4 2.5c-1.5-.2-3.4.6-3.9.7-6.3 1.4-11.2 3.3-17.2 3.3 2-2.2 5-3 7.8-4.2 2.5-1.2 8-2.1 6.8-5.3-3-2-6 .8-8.7 1.8a190 190 0 0 1-8.8 3.2c-2.7.9-5.6 1.5-9 2.4l-.8.3h-2.1c-3.7.7-8 1.5-11.7 2.7a120 120 0 0 1 4.9-9.4c1-1.6 2.5-3.6 3.8-5 1.3-1.6 2.2-3.3 3.5-4.6 1.7-1.6 3.2-3 3.7-5.5.8-4-.9-8.3-2.3-12-1-2.8-2.5-5.2-3.6-7.7-.7-1.4-.9-3-1.5-4.3-.6-1.4-1.5-1.9-2-3-.5-1.3-.4-3.2-.8-5-.7-3.1-.7-6.5-1.7-9.7-.4-1.2-1.8-4.2-3.3-3.7-1.6.6-.2 7.4-.1 8.5l.3 4.3c0 1.2.7 6.7-1 3.3-.4-.9-.8-4-1.1-4.9-1.6-4.7-2.6-8.4-3.7-13.1-.4-1.9-2.1-6-4.4-4.5-1.5 1-.1 4.1.2 6l1.2 6c.4 2.1.4 4.3 1 6.2.4 2 1.8 4 1 6-2.6-3.1-4-7.6-5.6-11.4l-1.8-4c-.4-1-1.8-10.4-5.2-9-1.5.6-1 3.9-.9 5 .4 1.9 1 3.8 1.4 5 2 6.3 2.9 10 5.6 15.7-3-2.8-4.7-6.2-7.3-10.6-1.2-1.9-4.2-6.3-6-4.8-1.7 1.4 2.2 8.6 3.4 10.6 2.4 4.2 4.5 7.6 6 10.7l3.2 6.6c-1-.7-2-1.4-2.8-2.5-1-1.4-2.5-1.8-4.3-2-1.6-.3-3.2.2-2.6 2.4.4 1.5 2.5 3.3 3.6 4.1l5 4.1c1.8 1.4 3.4 2.9 5 4.4a11 11 0 0 1 2.8 3.8c.5 1.5-.2 2-1 3.3-1.2 2-1.7 4.3-2.6 6.5a30.5 30.5 0 0 1-6.7 10c-2.8-.8-3 4.4-4.8 3.8-1.3-2.8 4.1-9.7.5-10.3-2.4-.4-2.4 5.4-4.3 6.8-1.7-2.4 3.4-11.9-.2-12.4-3.1-.5-1.8 5.5-4 7.1-1.6-3.3 2-9.8-2.5-11.3-1.5.7-1.1 4-1.4 5.5-1.3-.4-2-1-3.1-.4-.6 3.1 1.3 6 1.6 9.5.3 2.9-.2 7-.1 10 0 1.3.4 2.7.2 3.4-.2.7-1 1.8-2 3l-8.6 1.3H208c-.5-4-.5-8-.4-12 0-1.9.3-3.6 1-5.2 0-7 .4-14.1 2-21l.1-.7.4-2.3c.3-1.5.2-3.3.5-4.8.2-1.2.9-2.3 1.1-3.5.4-1.8.3-4 .3-6l.3-6c0-5-1-10.3-1.2-15.6l-.2-8c0-2.7-.3-5.4-.2-8 .1-2.3 1.4-5.3 1.9-8.2 1-5.3-.1-11 1-15.3.6-3 2.6-5.5 4-8.2 1-2 4-7 2.3-8-2-1.4-4.3 3-5.5 5l-1.5 2c-1 1.7-2 5.5-3.4 5.4-2.4-.1-.5-6.8-.2-9 .7-5 2-11 .7-12.2-3.4-2.9-3.8 4.9-4.5 8-.3 1-.9 2.2-1 3-.3 1.3-.5 7.1-2 7.4-1.8.5-1.4-4-1.5-5.5-.3-4.5-.8-7.3-1.4-12-.3-2.4-.9-4.3-3.3-4.4-1.7.3-1 3.7-1 5.7.1 4 .5 7.9.9 12.1.1 1.5.7 5.3-1.3 5.2-1.8-.2-2-3.7-2.4-5.1l-2-5.2c-1.1-3.8-2.7-10.2-5.5-9.1-2.4.2-.4 5.8.3 8.3.8 2.3 1.2 4.8 2 7.4.8 2 1.9 5.1 2 7.7.3 2.4.9 7.3-1.8 7.5-1 0-3.8-2-5.6-3.5-1.4-1.2-2-2.7-4-3.5-2.3-.9-5.4-.8-6.8 1.3.2 2.1 3.7 2.7 5 3.5 1.7 1 4.4 4 5.5 5.8.6 1 .7 2.3 1.4 3.1.6.7 1.7 1.1 2.5 2 1.1 1 1.8 2.7 2.8 3.6 2.6 2.5 6.3 4 7.3 7 1.4 4.2-.3 13-1.6 19.2-1.2 5.6-3 10.7-3.3 15.8-.3 6.4 3.3 11 2.3 17.2v.3l-.4-.5c-1.7-2.8-3.5-5.5-5.4-8.2a16 16 0 0 0-1.9-4.2c0-.3-.2-.5-.4-.7l-.2-.3c1 .3 2 .2 3-.3-1.4.5-2.7 0-3.8-.7h-.1a17 17 0 0 0-1.3-1.4l-.1-.1a35 35 0 0 0-2.3-2l-2-1.5-.9-.7-.3-.3v-.1a4.3 4.3 0 0 0-1.3-2.8 8.1 8.1 0 0 0-1.9-1.8c-1-.8-1.9-1.4-3-1.9-1.2-.4-2.3-.6-3.5-.7-1.2 0-2.3 0-3.5.2l-1.6.5c-.7 0-1.3.3-1.7.6-1.1.6-2 1.4-2.9 2h-.2c-1 0-2.2.2-3.2.5l-.5-.6.3.6-2.7 1a5 5 0 0 1-1.7-1.8 7 7 0 0 0 1.5 1.9 17.4 17.4 0 0 0-6.3 5.5l-.4.4c-.6-1.7-.1-3.6 0-5.3l.1-5.7a66 66 0 0 1 2.8-11.9c.6-1.8.5-4 1.3-5.8.5-1.3 2.6-2.7 4.3-4.4 1.6-1.5 2.8-3.3 4-5 .7-.8 1.8-1.5 2.3-2.3.8-1 1-2.5 1.7-3.5 1.4-2.3 3-4.6 5-6.2 1.8-1.4 4.6-2 5.3-4-1-2.7-4.8-2.3-6.9-1.3-1.5.7-2.5 2.4-4 3.9-1 1-4.8 4.4-6.5 4.3-4.9-.4-4.6-5.9-4.7-9.9 0-2.4.6-4.7 1-7.4.2-2.4.1-4.8.5-7.8.2-2.4.5-6.3-1.6-6.6-3-.5-2.8 6.5-3.2 8.8-.2 1-.9 3-1 4-.4 2.3 0 5.6-1.3 7.8-3 .5-2.5-3.1-2.6-5.1l-1.4-13c-.3-1.8-1-5.2-3-4.7-3 .7-1.1 8.8-1 10.6l.1 6.2c.2 2 .8 4 0 6-1.3.5-1.4-1.3-1.7-2-1.3-2.4-2.1-5.1-3.2-8-1.3-3.4-2.9-9.8-6.1-9-1.5 1.2 0 4.9.7 7 .7 2.1 1.2 4.4 1.8 6.6.4 1.4 1 2.9 1.6 4.3.4 1.4 1.5 3.1.5 4.6-1.2.2-2.4-1.5-3.4-2.8l-2.9-3.5c-1-1.2-4.8-7-6.9-5-1.7 1.7 3.1 6.9 4.1 8.3 2.2 3.2 4.7 5.5 5.5 7.6.3.7.2 2 .5 3 .2 1 .8 1.7 1 2.6.7 3 .8 6.3 1.9 9.4.9 2.7 3.1 6.1 3.2 8.5l-.5 5c-.8 4.7-2.1 8.2-3.5 12.8-1.2 4-2 8-3 11.8-1 3.3-2.2 6.4-2.5 9.8v.7l1 3.5c1.7 13 3.1 26.2 4 39.3h-13.2c.6-6.2-.8-17.2-17.4-22.5-11-3.5-17.5 1.3-21.4 7.3l2.7-16a75.7 75.7 0 0 1 6.3-22.4c3.6-6.8 8-13.4 9.7-20.3.6-2.3 0-5 .8-7.3.8-2.7 3.1-5.5 4.2-8.3 1.1-2.7 4.6-9.4.5-9.8-5.2 2-5.1 10.3-9 12.2 0-2.4-1.3-4.5-3.4-5a4 4 0 0 0-2.2.1l-1 .1c-.5-2-1.8-3.5-3.6-3.9-2-.5-4.1.6-5.5 2.6-.3-3.4 7.7-21.1 1.3-21.9-3.4-.4-5.5 11.5-6.2 13.2-2 5.8-2.4 6.2-5 11.6-1.9 3.7-3.5 8.4-5 12.4-1.7 4.7.8 10.2 1.4 14.9a35 35 0 0 1-1 13c-.7 3.6-1.1 7.6-1.9 10.7-3.3 13.8-11.1 26.9-17 39.3h-4.4l6-31.2c6.5-34-.8-60.4-3.5-74.5-2.7-14.1-27.3-59.1-30.9-64.7C8.2 502 3 496.2-3 490.2v27.4c3 1.8 5 4.8 7.5 11.4 5.5 15.2 16 53.1 17.7 59.7 1.8 6.7 3.1 17.6-8.2 31.4 0 0-13-20.3-17-26.3V800h806V618.2l-3 3.9s-16-25-18-27.7c-2-2.6-16-17-19-13-2.8 4-11-5-12.4-4.1-1.5.8-12.5 5.3-15 6.9-2.6 1.6-14.7 8.7-17 12.7-2.2 4-21.2 22.8-21.2 22.8s-8.2-13.6-6.6-19.7c1.5-6.2 6.3-31.2 8.4-38.6" fill="#000d20"/></g></svg>